<?xml version="1.0" encoding="utf-8"?>
<!-- Generator: Adobe Illustrator 22.1.0, SVG Export Plug-In . SVG Version: 6.00 Build 0)  -->
<svg version="1.1" id="Layer_1" xmlns="http://www.w3.org/2000/svg" xmlns:xlink="http://www.w3.org/1999/xlink" x="0px" y="0px"
	 viewBox="0 0 92.8 76" style="enable-background:new 0 0 92.8 76;" xml:space="preserve">
<style type="text/css">
	.st0{fill-rule:evenodd;clip-rule:evenodd;}
</style>
<path class="st0" d="M36.4,0.4c1.8,4.4,1,6.5-2.1,8.6c-5.3,3.7-10.5,7.7-15,12.3c-5.2,5.2-7,12-5.4,19.3c1,4.7,3.4,5.7,8.1,4.8
	c3.8-0.7,7.9-1.6,11.6-0.9c5.7,1.1,9.2,5.4,10.3,11c1.1,6-0.2,11.5-5.5,15.6C25.1,81.3,4.9,72.8,1,54.9c-3.8-18,3.2-32.4,16.9-43.5
	C23.4,7,30,4.1,36.4,0.4z"/>
<path class="st0" d="M83.8,1.5c1.4,3.6,0.2,5.6-2.7,7.6c-5.3,3.7-10.5,7.7-14.9,12.3C61,26.7,59.3,33.5,61,40.9
	c0.9,4.2,3.6,5.7,7.8,4.6c3.2-0.8,6.6-1.9,9.7-1.5c6.3,0.8,10.5,4.8,12.3,10.9c1.8,6.2-0.5,12.7-5.6,16.4
	C71.9,81.2,52.3,72.7,48,55.2c-2.3-9.5-0.8-18.5,3.4-27.1C57.6,15.3,70.3,4.8,83.8,1.5z"/>
</svg>
